<svg width="32" height="32" viewBox="0 0 32 32" fill="none" xmlns="http://www.w3.org/2000/svg">
  <!-- Background circle -->
  <circle cx="16" cy="16" r="15" fill="#3B82F6" stroke="#1E40AF" stroke-width="2"/>
  
  <!-- Chat bubble -->
  <path d="M8 12C8 9.79086 9.79086 8 12 8H20C22.2091 8 24 9.79086 24 12V16C24 18.2091 22.2091 20 20 20H16L12 24V20C9.79086 20 8 18.2091 8 16V12Z" fill="white"/>
  
  <!-- Link symbol (chain links) -->
  <path d="M12 14C12.5523 14 13 13.5523 13 13C13 12.4477 12.5523 12 12 12C11.4477 12 11 12.4477 11 13C11 13.5523 11.4477 14 12 14Z" fill="#3B82F6"/>
  <path d="M20 14C20.5523 14 21 13.5523 21 13C21 12.4477 20.5523 12 20 12C19.4477 12 19 12.4477 19 13C19 13.5523 19.4477 14 20 14Z" fill="#3B82F6"/>
  <path d="M13 13H19" stroke="#3B82F6" stroke-width="1.5" stroke-linecap="round"/>
</svg>
